# xmcd CD database file
#
# Track frame offsets:
#	150
#	19845
#	33871
#	52365
#	65177
#	82925
#	97847
#	112334
#	131290
#	149323
#	163948
#	179594
#	195398
#	204098
#	215822
#	239077
#	257295
#	272210
#	281716
#	297110
#	308654
#	322229
#
# Disc length: 4446 seconds
#
# Revision: 11
# Processed by: cddbd v1.5.1PL2 Copyright (c) Steve Scherf et al.
# Submitted via: CDex 1.51
#
DISCID=57115c16
DTITLE=Various Artist - Trampska abeceda 1. dil - CD2 G-K
DYEAR=2001
DGENRE=Country
TTITLE0=Georgia
TTITLE1=Hledam devce na nedeli
TTITLE2=Hoj trampove
TTITLE3=Hola ria hou
TTITLE4=Honak
TTITLE5=Horici prerie
TTITLE6=Hvezda Loo
TTITLE7=Hvezdicka zbloudila
TTITLE8=Chajda mala
TTITLE9=Chata na vode
TTITLE10=Izabel
TTITLE11=Ja prijdu za tebou
TTITLE12=Jednou otec rekl mi
TTITLE13=Jezdili jsme ve dvojici
TTITLE14=Jizni eskadrona
TTITLE15=Jizni kriz
TTITLE16=Joe Bowers
TTITLE17=Joudlejdy jou
TTITLE18=Kamarad
TTITLE19=Kapitan
TTITLE20=Kdyz ohne zaplanou
TTITLE21=Kdyz v pastvinach
EXTD=YEAR: 2001
EXTT0=
EXTT1=
EXTT2=
EXTT3=
EXTT4=
EXTT5=
EXTT6=
EXTT7=
EXTT8=
EXTT9=
EXTT10=
EXTT11=
EXTT12=
EXTT13=
EXTT14=
EXTT15=
EXTT16=
EXTT17=
EXTT18=
EXTT19=
EXTT20=
EXTT21=
PLAYORDER=
